<?xml version="1.0" encoding="UTF-8" standalone="no"?>
<svg
   xmlns:dc="http://purl.org/dc/elements/1.1/"
   xmlns:cc="http://creativecommons.org/ns#"
   xmlns:rdf="http://www.w3.org/1999/02/22-rdf-syntax-ns#"
   xmlns:svg="http://www.w3.org/2000/svg"
   xmlns="http://www.w3.org/2000/svg"
   xmlns:sodipodi="http://sodipodi.sourceforge.net/DTD/sodipodi-0.dtd"
   xmlns:inkscape="http://www.inkscape.org/namespaces/inkscape"
   width="1000"
   height="1000"
   viewBox=""
   id="svg2"
   version="1.1"
   inkscape:version="0.48.5 r10040"
   sodipodi:docname="not-google_plus.svg">
  <metadata
     id="metadata14">
    <rdf:RDF>
      <cc:Work
         rdf:about="">
        <dc:format>image/svg+xml</dc:format>
        <dc:type
           rdf:resource="http://purl.org/dc/dcmitype/StillImage" />
      </cc:Work>
    </rdf:RDF>
  </metadata>
  <defs
     id="defs12" />
  <sodipodi:namedview
     pagecolor="#ffffff"
     bordercolor="#666666"
     borderopacity="1"
     objecttolerance="10"
     gridtolerance="10"
     guidetolerance="10"
     inkscape:pageopacity="0"
     inkscape:pageshadow="2"
     inkscape:window-width="644"
     inkscape:window-height="480"
     id="namedview10"
     showgrid="false"
     inkscape:zoom="0.236"
     inkscape:cx="500"
     inkscape:cy="500"
     inkscape:window-x="0"
     inkscape:window-y="31"
     inkscape:window-maximized="0"
     inkscape:current-layer="svg2" />
  <path
     id="path4"
     d="M 70.71875,0 0,70.71875 167.28125,238 C 147.72793,265.97286 136.75,298.74331 136.75,331.15625 c 0,38.69743 15.87967,77.03592 43.625,104.78125 39.0625,39.42757 88.18341,47.625 122.5,47.625 2.73803,0 5.44947,-0.005 8.1875,-0.1875 -1.46028,5.47605 -2.1875,11.5111 -2.1875,18.8125 0,19.89632 6.56717,35.21758 14.78125,47.8125 -43.80841,3.46817 -106.04936,11.87821 -154.96875,40.71875 -71.918808,41.43546 -77.5625,102.22664 -77.5625,119.75 0,31.1068 12.98195,62.32928 40.28125,87.40625 L 0,929.28125 70.71875,1000 227.28125,843.4375 c 22.03586,4.63441 46.86738,7.21875 74.65625,7.21875 167.2021,0 254.65625,-90.91151 254.65625,-180.71875 0,-20.35889 -3.76772,-37.63539 -10.125,-52.75 L 929.28125,1000 1000,929.28125 570.71875,500 704.4375,366.28125 l 0,135.53125 62.0625,0 0,-147.84375 142.375,0 0,-62.0625 -130.0625,0 L 1000,70.71875 929.28125,0 766.5,162.78125 l 0,-13.25 -62.0625,0 0,75.3125 -67.0625,67.0625 -78.96875,0 0,62.0625 16.90625,0 L 500,429.28125 485.84375,415.125 c 22.01487,-23.42355 39.53125,-54.21285 39.53125,-100.03125 0,-49.10193 -21.72225,-81.58294 -42.53125,-105.3125 l 23.71875,0 110.25,-60.25 -243.6875,0 c -34.76315,0 -82.03455,3.3374 -128.125,24.75 L 70.71875,0 z M 315.625,207.75 c 36.32447,0 60.05987,27.40683 73.75,50.40625 14.99094,25.25647 24.89145,57.89805 26.84375,87.34375 L 285.40625,214.6875 c 9.49824,-4.40614 20.07294,-6.9375 30.21875,-6.9375 z M 248.84375,319.5625 359.0625,429.78125 c -4.51208,0.90506 -9.01263,1.40625 -13.3125,1.40625 -37.41968,0 -61.13873,-26.82944 -74.28125,-49.28125 -11.90921,-20.38308 -18.99005,-42.64165 -22.625,-62.34375 z m 77.03125,283.84375 -119.25,119.25 c -4.27961,-9.41138 -6.53125,-19.65762 -6.53125,-30.625 0,-47.64165 39.24679,-67.18925 69,-77.59375 17.96439,-5.79803 39.10927,-9.13007 56.78125,-11.03125 z M 429.96875,640.75 c 26.44367,22.08891 36.8125,39.12142 36.8125,63.6875 0,50.0146 -46.01577,81.21875 -120.125,81.21875 -20.27927,0 -38.99652,-2.00537 -55.8125,-5.78125 l 139.125,-139.125 z" />
</svg>
