<?xml version="1.0" encoding="UTF-8" standalone="no"?>
<svg
   xmlns:dc="http://purl.org/dc/elements/1.1/"
   xmlns:cc="http://creativecommons.org/ns#"
   xmlns:rdf="http://www.w3.org/1999/02/22-rdf-syntax-ns#"
   xmlns:svg="http://www.w3.org/2000/svg"
   xmlns="http://www.w3.org/2000/svg"
   xmlns:sodipodi="http://sodipodi.sourceforge.net/DTD/sodipodi-0.dtd"
   xmlns:inkscape="http://www.inkscape.org/namespaces/inkscape"
   height="1000"
   width="1000"
   viewBox=""
   id="svg2"
   version="1.1"
   inkscape:version="0.48.5 r10040"
   sodipodi:docname="not-viadeo.svg">
  <metadata
     id="metadata14">
    <rdf:RDF>
      <cc:Work
         rdf:about="">
        <dc:format>image/svg+xml</dc:format>
        <dc:type
           rdf:resource="http://purl.org/dc/dcmitype/StillImage" />
      </cc:Work>
    </rdf:RDF>
  </metadata>
  <defs
     id="defs12" />
  <sodipodi:namedview
     pagecolor="#ffffff"
     bordercolor="#666666"
     borderopacity="1"
     objecttolerance="10"
     gridtolerance="10"
     guidetolerance="10"
     inkscape:pageopacity="0"
     inkscape:pageshadow="2"
     inkscape:window-width="644"
     inkscape:window-height="480"
     id="namedview10"
     showgrid="false"
     inkscape:zoom="0.236"
     inkscape:cx="500"
     inkscape:cy="500"
     inkscape:window-x="0"
     inkscape:window-y="31"
     inkscape:window-maximized="0"
     inkscape:current-layer="svg2" />
  <path
     id="path4"
     style="fill:#000000"
     d="M 70.71875,0 0,70.71875 253.3125,324.03125 c -27.31945,16.74614 -52.5738,38.01258 -75.75,63.8125 -59.19003,66.66667 -88.78125,145.50302 -88.78125,236.46875 0,62.71697 14.77378,119.99894 44.28125,171.90625 L 0,929.28125 70.71875,1000 194.5,876.25 c 61.22323,60.69282 138.43135,91.03125 231.65625,91.03125 98.44237,0 179.13415,-34.24542 242.0625,-102.78125 21.25272,-22.72568 38.92494,-46.92311 53,-72.5625 L 929.28125,1000 1000,929.28125 757.53125,686.8125 c 3.38442,-20.15545 5.09375,-40.97068 5.09375,-62.5 0,-48.59813 -8.42757,-94.10115 -25.25,-136.46875 -24.92212,15.57632 -51.40012,26.17377 -79.4375,31.78125 11.46628,26.58093 18.12546,55.78096 20,87.59375 L 613.75,543.03125 c 0.77187,-4.67431 1.46525,-9.37094 2.125,-14.0625 3.73832,-25.54517 5.625,-50.45093 5.625,-74.75 0,-1.66716 -0.011,-3.32182 -0.0312,-4.96875 l 60.21875,-60.21875 70.65625,34.34375 c 20.56075,0 41.4412,-6.22644 62.625,-18.6875 l 14,-10.28125 c 9.34579,-6.23053 20.72936,-17.77132 34.125,-34.59375 13.39564,-16.82243 23.83586,-35.50175 31.3125,-56.0625 l 10.28125,-42.0625 c 3.73832,-15.57632 5.59375,-33.97245 5.59375,-55.15625 0.52817,-13.20418 -0.0708,-27.97419 -1.78125,-44.3125 l 91.5,-91.5 L 929.28125,0 875.375,53.90625 c -4.18019,-7.237553 -8.73429,-14.301323 -13.6875,-21.1875 l -12.15625,21.5 c -8.09969,14.953271 -21.65313,30.83382 -40.65625,47.65625 -19.00312,16.82243 -39.72634,27.73433 -62.15625,32.71875 l -19.625,5.59375 c -13.08411,3.73832 -28.02132,9.49309 -44.84375,17.28125 -16.82243,7.78816 -28.99211,16.05851 -36.46875,24.78125 l -16.8125,23.34375 c -11.83801,14.95327 -19.00779,34.89038 -21.5,59.8125 -0.62305,3.11526 -0.9375,6.25974 -0.9375,9.375 0,12.50257 2.59866,25.9042 7.71875,40.25 l -6.84375,6.84375 c -4.51237,-25.70024 -9.13606,-46.12049 -13.9375,-61.125 l -8.4375,-23.375 c -0.5653,-1.74729 -1.12273,-3.42698 -1.6875,-5.15625 2.39967,35.31094 3.89029,69.45067 4.5,102.375 0,2.30223 -0.0155,4.57906 -0.0312,6.875 L 500,429.28125 430.5625,359.84375 c 30.19998,0.52097 59.25507,6.42692 87.1875,17.71875 2.49221,-24.29907 10.91978,-51.09151 25.25,-80.375 -35.51402,-13.08411 -74.47615,-19.625 -116.84375,-19.625 -24.72959,0 -48.40335,2.2882 -71.0625,6.8125 L 70.71875,0 z m 512.625,232.21875 c -0.0525,-0.77276 -0.10288,-1.53859 -0.15625,-2.3125 L 587.84375,217.75 c 3.11526,-8.09969 5.00195,-19.01158 5.625,-32.71875 l 0,-6.53125 c 0,-11.83801 -1.25779,-23.97644 -3.75,-36.4375 -3.11526,-14.95327 -11.82603,-31.46271 -26.15625,-49.53125 -14.95327,-17.445483 -34.57593,-32.413941 -58.875,-44.875 l 10.28125,15.90625 c 6.23053,9.968847 16.04186,30.818049 29.4375,62.59375 12.84319,30.46524 25.80795,65.86099 38.9375,106.0625 z m -268,153.84375 L 429.28125,500 195.0625,734.21875 c -14.77861,-33.61914 -22.15625,-69.6503 -22.15625,-108.0625 0,-72.8972 24.90576,-135.82175 74.75,-188.78125 20.86438,-21.6468 43.43882,-38.72687 67.6875,-51.3125 z M 575.25,495.46875 c -0.41061,2.63253 -0.82129,5.22774 -1.25,7.8125 L 570.71875,500 575.25,495.46875 z m -75.25,75.25 44.65625,44.65625 c -10.91763,30.29819 -22.99414,58.35467 -36.25,84.15625 -17.44548,33.95639 -35.33869,60.59161 -53.71875,79.90625 -18.38006,19.31464 -35.36118,35.35241 -50.9375,48.125 -15.57632,12.77259 -28.3749,21.67183 -38.34375,26.65625 l -14.9375,6.53125 52.34375,3.75 c 46.10592,-29.28349 84.87958,-63.24572 116.34375,-101.875 29.30306,-35.97603 50.91094,-71.96147 64.8125,-107.9375 l 74.8125,74.8125 c -4.02113,9.96618 -8.65633,19.75015 -13.90625,29.375 -23.05296,41.1215 -53.90197,72.5994 -92.53125,94.40625 -38.62928,22.42991 -80.70463,33.625 -126.1875,33.625 -46.72897,0 -89.08752,-11.19509 -127.09375,-33.625 -17.1729,-10.08567 -32.66628,-21.78816 -46.5,-35.09375 L 500,570.71875 z" />
</svg>
