<?xml version="1.0" encoding="UTF-8" standalone="no"?>
<svg
   xmlns:dc="http://purl.org/dc/elements/1.1/"
   xmlns:cc="http://creativecommons.org/ns#"
   xmlns:rdf="http://www.w3.org/1999/02/22-rdf-syntax-ns#"
   xmlns:svg="http://www.w3.org/2000/svg"
   xmlns="http://www.w3.org/2000/svg"
   xmlns:sodipodi="http://sodipodi.sourceforge.net/DTD/sodipodi-0.dtd"
   xmlns:inkscape="http://www.inkscape.org/namespaces/inkscape"
   width="1000"
   height="1000"
   viewBox=""
   id="svg2"
   version="1.1"
   inkscape:version="0.48.5 r10040"
   sodipodi:docname="not-instagram-filled.svg">
  <metadata
     id="metadata14">
    <rdf:RDF>
      <cc:Work
         rdf:about="">
        <dc:format>image/svg+xml</dc:format>
        <dc:type
           rdf:resource="http://purl.org/dc/dcmitype/StillImage" />
      </cc:Work>
    </rdf:RDF>
  </metadata>
  <defs
     id="defs12" />
  <sodipodi:namedview
     pagecolor="#ffffff"
     bordercolor="#666666"
     borderopacity="1"
     objecttolerance="10"
     gridtolerance="10"
     guidetolerance="10"
     inkscape:pageopacity="0"
     inkscape:pageshadow="2"
     inkscape:window-width="644"
     inkscape:window-height="480"
     id="namedview10"
     showgrid="false"
     inkscape:zoom="0.236"
     inkscape:cx="500"
     inkscape:cy="500"
     inkscape:window-x="0"
     inkscape:window-y="31"
     inkscape:window-maximized="0"
     inkscape:current-layer="svg2" />
  <path
     id="path4"
     d="M 70.71875,0 0,70.71875 l 69.875,69.875 c -23.247801,36.11665 -36.75,79.01109 -36.75,125 l 0,64.75 226.5,0 156.21875,156.21875 c -2.01617,7.52728 -3.09375,15.44335 -3.09375,23.59375 0,2.07339 0.0819,4.11681 0.21875,6.15625 L 311.40625,617.875 C 293.41502,585.98993 283.125,549.26184 283.125,510.15625 c 0,-33.5028 7.584,-65.30181 21.0625,-93.78125 l -271.0625,0 0,318.03125 c 0,45.99226 13.502199,88.88351 36.75,125 L 0,929.28125 70.71875,1000 l 70,-70 c 36.31905,23.22884 79.49998,36.71875 125.78125,36.71875 l 467,0 c 46.28093,0 89.46234,-13.4898 125.78125,-36.71875 l 70,70 70.71875,-70.71875 -69.875,-69.875 c 23.24776,-36.1165 36.75,-79.00807 36.75,-125 l 0,-318.03125 -261.5,0 c 13.4785,28.47944 21.0625,60.27845 21.0625,93.78125 0,41.59829 -11.60544,80.53589 -31.78125,113.78125 l -99.0625,-99.0625 c 0.78132,-4.79495 1.21875,-9.70733 1.21875,-14.71875 0,-10.82419 -1.89634,-21.22699 -5.375,-30.875 l 148.9375,-148.9375 226.5,0 0,-64.75 c 0,-45.98347 -13.50761,-88.8862 -36.75,-125 L 1000,70.71875 929.28125,0 l -70,70 C 822.96234,46.77016 779.78093,33.28125 733.5,33.28125 l -467,0 c -46.28127,0 -89.4622,13.488798 -125.78125,36.71875 l -70,-70 z m 651.25,148.65625 58.65625,0 -84.59375,84.59375 0,-58.78125 c 0,-14.19626 11.67395,-25.8125 25.9375,-25.8125 z M 828,242.71875 828,254.25 c 0,14.1972 -11.64176,25.8125 -25.90625,25.8125 l -11.4375,0 L 828,242.71875 z m -323.21875,46.75 c 38.92555,0 75.49585,10.08933 107.3125,27.71875 L 510.5625,418.71875 c -1.91524,-0.11898 -3.83643,-0.1875 -5.78125,-0.1875 -4.89721,0 -9.71383,0.3876 -14.40625,1.125 L 391.40625,320.6875 c 33.19256,-19.77983 71.95248,-31.21875 113.375,-31.21875 z m -30.59375,307.0625 c 9.58018,3.3742 19.86773,5.21875 30.59375,5.21875 8.04208,0 15.84104,-1.03024 23.28125,-2.96875 l 96.78125,96.78125 c -34.6252,22.30314 -75.84306,35.28125 -120.0625,35.28125 -46.68864,0 -90.04729,-14.45654 -125.8125,-39.09375 l 95.21875,-95.21875 z" />
</svg>
