<?xml version="1.0" encoding="UTF-8" standalone="no"?>
<svg
   xmlns:dc="http://purl.org/dc/elements/1.1/"
   xmlns:cc="http://creativecommons.org/ns#"
   xmlns:rdf="http://www.w3.org/1999/02/22-rdf-syntax-ns#"
   xmlns:svg="http://www.w3.org/2000/svg"
   xmlns="http://www.w3.org/2000/svg"
   xmlns:sodipodi="http://sodipodi.sourceforge.net/DTD/sodipodi-0.dtd"
   xmlns:inkscape="http://www.inkscape.org/namespaces/inkscape"
   height="1000"
   width="1000"
   viewBox=""
   id="svg2"
   version="1.1"
   inkscape:version="0.48.5 r10040"
   sodipodi:docname="not-pinterest.svg">
  <metadata
     id="metadata14">
    <rdf:RDF>
      <cc:Work
         rdf:about="">
        <dc:format>image/svg+xml</dc:format>
        <dc:type
           rdf:resource="http://purl.org/dc/dcmitype/StillImage" />
      </cc:Work>
    </rdf:RDF>
  </metadata>
  <defs
     id="defs12" />
  <sodipodi:namedview
     pagecolor="#ffffff"
     bordercolor="#666666"
     borderopacity="1"
     objecttolerance="10"
     gridtolerance="10"
     guidetolerance="10"
     inkscape:pageopacity="0"
     inkscape:pageshadow="2"
     inkscape:window-width="644"
     inkscape:window-height="480"
     id="namedview10"
     showgrid="false"
     inkscape:zoom="0.236"
     inkscape:cx="500"
     inkscape:cy="500"
     inkscape:window-x="0"
     inkscape:window-y="31"
     inkscape:window-maximized="0"
     inkscape:current-layer="svg2" />
  <path
     id="path4"
     style="fill:#000000"
     d="M 70.71875,0 0,70.71875 168.5625,239.28125 c -1.90136,4.01291 -3.72688,8.04968 -5.46875,12.125 -16.5109,38.62928 -24.78125,77.56016 -24.78125,116.8125 0,48.59813 9.18244,91.1139 27.5625,127.5625 18.38006,36.4486 45.95863,62.17173 82.71875,77.125 6.23053,2.49221 11.82808,2.64944 16.8125,0.46875 4.98442,-2.18069 8.12889,-6.70892 9.375,-13.5625 1.24611,-3.11526 3.10154,-10.28505 5.59375,-21.5 2.49221,-11.21495 4.34764,-18.38474 5.59375,-21.5 3.11526,-10.5919 0.63094,-20.56046 -7.46875,-29.90625 C 254.82399,458.24581 243,423.05705 243,381.3125 c 0,-21.21817 2.21399,-41.53019 6.65625,-60.9375 l 101.25,101.25 c 0.43926,2.22832 0.90837,4.4939 1.4375,6.875 3.11526,14.01869 7.17183,26.03115 12.15625,36 -13.06455,55.16144 -21.64955,91.36047 -31.125,131.40625 L 0,929.28125 70.71875,1000 291.09375,779.625 c -1.09185,7.13483 -2.0411,14.55245 -2.78125,22.25 -1.55763,16.19938 -2.50097,30.97936 -2.8125,44.375 -0.31153,13.39564 0.003,27.26353 0.9375,41.59375 0.93458,14.33022 1.87792,26.02823 2.8125,35.0625 0.93458,9.03427 1.87792,17.58781 2.8125,25.6875 0.93458,8.09969 1.40625,12.4707 1.40625,13.09375 0.62305,3.11526 2.47849,4.9707 5.59375,5.59375 3.11526,0.62305 5.59959,-0.28904 7.46875,-2.78125 l 5.625,-7.5 c 3.73832,-4.36137 7.79488,-9.48725 12.15625,-15.40625 4.36137,-5.919 9.48725,-13.24601 15.40625,-21.96875 5.919,-8.72274 11.831,-18.0624 17.75,-28.03125 5.919,-9.96885 11.831,-20.5663 17.75,-31.78125 5.919,-11.21495 11.39058,-22.88172 16.375,-35.03125 4.98442,-12.14953 9.04099,-24.16199 12.15625,-36 L 441.125,641.125 c 9.96885,18.69159 27.26441,34.57214 51.875,47.65625 24.61059,13.08411 50.93137,19.625 78.96875,19.625 20.78209,0 40.61427,-2.06949 59.53125,-6.1875 L 929.28125,1000 1000,929.28125 728.09375,657.375 c 19.00346,-14.5901 36.57922,-32.31183 52.75,-53.15625 53.89408,-69.4704 80.84375,-157.48919 80.84375,-264.03125 0,-39.07966 -7.05323,-75.73909 -21.1875,-109.96875 L 1000,70.71875 929.28125,0 785.34375,143.9375 c -5.98268,-6.66529 -12.31389,-13.20109 -19,-19.625 C 702.79235,63.25331 621.50292,32.71875 522.4375,32.71875 c -61.05919,0 -116.68799,10.283002 -166.84375,30.84375 -50.15576,20.560748 -90.62763,47.35319 -121.46875,80.375 -3.15643,3.37961 -6.24367,6.78041 -9.25,10.21875 L 70.71875,0 z m 436.75,124.3125 c 70.40498,0 125.24766,19.15099 164.5,57.46875 13.23614,12.92099 24.22717,27.09522 33,42.53125 L 500,429.28125 l -0.1875,-0.1875 c 6.24773,-20.16306 11.44699,-38.43812 15.59375,-54.78125 5.29595,-20.87227 7.96875,-38.48228 7.96875,-52.8125 0,-23.05296 -6.38366,-42.20395 -19.15625,-57.46875 -12.77259,-15.2648 -30.69704,-22.90625 -53.75,-22.90625 -28.66044,0 -53.12578,13.239 -73.375,39.71875 -3.73995,4.8907 -7.13831,9.99609 -10.1875,15.34375 l -71.75,-71.75 c 6.46259,-8.39681 13.52421,-16.53015 21.1875,-24.4375 48.90966,-50.46729 112.62033,-75.6875 191.125,-75.6875 z M 730.75,339.96875 c -1.31262,74.79049 -17.31524,138.90099 -48.03125,192.28125 -10.46207,18.18165 -21.84143,33.37149 -34.125,45.625 L 570.71875,500 730.75,339.96875 z m -230.75,230.75 43.875,43.875 c -20.91656,-3.34745 -38.18615,-13.21088 -51.8125,-29.5625 -0.97803,-1.17364 -1.94185,-2.33325 -2.84375,-3.53125 L 500,570.71875 z" />
</svg>
