<?xml version="1.0" encoding="UTF-8" standalone="no"?>
<svg
   xmlns:dc="http://purl.org/dc/elements/1.1/"
   xmlns:cc="http://creativecommons.org/ns#"
   xmlns:rdf="http://www.w3.org/1999/02/22-rdf-syntax-ns#"
   xmlns:svg="http://www.w3.org/2000/svg"
   xmlns="http://www.w3.org/2000/svg"
   xmlns:sodipodi="http://sodipodi.sourceforge.net/DTD/sodipodi-0.dtd"
   xmlns:inkscape="http://www.inkscape.org/namespaces/inkscape"
   width="1000"
   height="1000"
   viewBox=""
   id="svg2"
   version="1.1"
   inkscape:version="0.48.5 r10040"
   sodipodi:docname="not-instagram-empty.svg">
  <metadata
     id="metadata14">
    <rdf:RDF>
      <cc:Work
         rdf:about="">
        <dc:format>image/svg+xml</dc:format>
        <dc:type
           rdf:resource="http://purl.org/dc/dcmitype/StillImage" />
      </cc:Work>
    </rdf:RDF>
  </metadata>
  <defs
     id="defs12" />
  <sodipodi:namedview
     pagecolor="#ffffff"
     bordercolor="#666666"
     borderopacity="1"
     objecttolerance="10"
     gridtolerance="10"
     guidetolerance="10"
     inkscape:pageopacity="0"
     inkscape:pageshadow="2"
     inkscape:window-width="644"
     inkscape:window-height="480"
     id="namedview10"
     showgrid="false"
     inkscape:zoom="0.236"
     inkscape:cx="500"
     inkscape:cy="500"
     inkscape:window-x="0"
     inkscape:window-y="31"
     inkscape:window-maximized="0"
     inkscape:current-layer="svg2" />
  <path
     id="path4"
     d="M 70.71875,0 0,70.71875 70.53125,141.25 C 47.456046,177.2637 34.0625,220.0368 34.0625,265.84375 l 0,468.3125 c 0,45.80985 13.419315,88.54528 36.5,124.5625 L 0,929.28125 70.71875,1000 141.25,929.46875 C 177.53554,952.75119 220.70022,966.25 266.96875,966.25 l 466.0625,0 c 46.26853,0 89.43367,-13.4987 125.71875,-36.78125 L 929.28125,1000 1000,929.28125 929.4375,858.71875 c 23.08022,-36.01723 36.5,-78.75298 36.5,-124.5625 l 0,-468.3125 c 0,-45.80662 -13.39401,-88.58034 -36.46875,-124.59375 L 1000,70.71875 929.28125,0 858.75,70.53125 C 822.46492,47.250478 779.29978,33.75 733.03125,33.75 l 0,-0.03125 -466.0625,0 c -46.26853,0 -89.43321,13.531529 -125.71875,36.8125 L 70.71875,0 z m 196.25,119.6875 466.0625,0 c 22.36211,0 43.57972,5.03997 62.5625,14 l -38.15625,38.15625 -51.1875,0 c -14.23551,0 -25.875,11.59807 -25.875,25.78125 l 0,51.28125 -78.46875,78.46875 c -29.3395,-14.37888 -62.27894,-22.5 -97.125,-22.5 -37.36749,0 -72.58126,9.335 -103.46875,25.71875 L 204.40625,133.6875 c 18.98288,-8.96003 40.20039,-14 62.5625,-14 z m -133.125,84.875 L 275,345.71875 l -154.6875,0 0,-79.875 c 0,-21.86586 4.85792,-42.6378 13.53125,-61.28125 z m 732.3125,0 c 8.67543,18.6454 13.53125,39.41244 13.53125,61.28125 l 0,79.875 -154.6875,0 42.625,-42.625 18.59375,0 c 14.23458,0 25.875,-11.59901 25.875,-25.78125 l 0,-18.6875 54.0625,-54.0625 z m -745.84375,227.125 184.25,0 c -13.4514,28.4514 -21,60.18522 -21,93.65625 0,34.99796 8.22103,68.11077 22.84375,97.53125 L 133.84375,795.4375 C 125.17042,776.79425 120.3125,756.01983 120.3125,734.15625 l 0,-302.46875 z m 584.65625,0 174.71875,0 0,302.46875 c 0,21.86653 -4.85582,42.63606 -13.53125,61.28125 L 699.875,629.15625 c 16.65036,-30.95568 26.09375,-66.29832 26.09375,-103.8125 0,-33.47103 -7.54579,-65.20578 -21,-93.65625 z M 586.6875,484.03125 c 6.33152,12.41875 9.90625,26.45626 9.90625,41.3125 0,0.17636 10e-4,0.35512 0,0.53125 L 570.71875,500 586.6875,484.03125 z m -166.84375,6.53125 9.4375,9.4375 -15.84375,15.84375 c 0.92139,-8.85985 3.12352,-17.34913 6.40625,-25.28125 z M 500,570.71875 l 39.375,39.375 c -10.68881,4.35106 -22.3522,6.78125 -34.59375,6.78125 -14.80028,-2.7e-4 -28.79336,-3.5258 -41.1875,-9.75 L 500,570.71875 z m -129.625,129.625 c 37.27917,28.50383 83.89548,45.46875 134.40625,45.46875 48.06441,0 92.5842,-15.35816 128.90625,-41.40625 L 795.59375,866.3125 c -18.98278,8.96088 -40.20039,14 -62.5625,14 l -466.0625,0 c -22.36211,0 -43.57962,-5.03912 -62.5625,-14 L 370.375,700.34375 z" />
</svg>
