<?xml version="1.0" encoding="UTF-8" standalone="no"?>
<svg
   xmlns:dc="http://purl.org/dc/elements/1.1/"
   xmlns:cc="http://creativecommons.org/ns#"
   xmlns:rdf="http://www.w3.org/1999/02/22-rdf-syntax-ns#"
   xmlns:svg="http://www.w3.org/2000/svg"
   xmlns="http://www.w3.org/2000/svg"
   xmlns:sodipodi="http://sodipodi.sourceforge.net/DTD/sodipodi-0.dtd"
   xmlns:inkscape="http://www.inkscape.org/namespaces/inkscape"
   width="1000"
   height="1000"
   version="1.1"
   xml:space="preserve"
   style="stroke-linejoin:round;stroke-miterlimit:1.41421;"
   viewBox=""
   id="svg2"
   inkscape:version="0.48.5 r10040"
   sodipodi:docname="not-facebooksvg.svg"><metadata
     id="metadata14"><rdf:RDF><cc:Work
         rdf:about=""><dc:format>image/svg+xml</dc:format><dc:type
           rdf:resource="http://purl.org/dc/dcmitype/StillImage" /></cc:Work></rdf:RDF></metadata><defs
     id="defs12" /><sodipodi:namedview
     pagecolor="#ffffff"
     bordercolor="#666666"
     borderopacity="1"
     objecttolerance="10"
     gridtolerance="10"
     guidetolerance="10"
     inkscape:pageopacity="0"
     inkscape:pageshadow="2"
     inkscape:window-width="644"
     inkscape:window-height="480"
     id="namedview10"
     showgrid="false"
     inkscape:zoom="0.236"
     inkscape:cx="500"
     inkscape:cy="500"
     inkscape:window-x="0"
     inkscape:window-y="31"
     inkscape:window-maximized="0"
     inkscape:current-layer="svg2" /><path
     id="path4"
     style="fill:black;"
     d="M 70.71875,0 0,70.71875 l 308.125,308.125 -49.75,0 0,167.375 107.4375,0.6875 0,16.5625 L 0,929.28125 70.71875,1000 365.8125,704.90625 l 0,240.25 203.4375,0 0,-305.1875 L 929.28125,1000 1000,929.28125 619.53125,548.8125 l 88.59375,0 33.625,-165.25 -54.59375,0 L 1000,70.71875 929.28125,0 707.4375,221.84375 l 0,-166.875 -184.59375,0 c -63.71721,0 -157.75,74.70346 -157.75,154.125 l 0,85.28125 L 70.71875,0 z m 537.84375,223.25 97.46875,0 -135.3125,135.3125 0,-96.21875 c 0,-16.74668 9.36169,-39.09375 37.84375,-39.09375 z" /></svg>