<?xml version="1.0" encoding="UTF-8" standalone="no"?>
<svg
   xmlns:dc="http://purl.org/dc/elements/1.1/"
   xmlns:cc="http://creativecommons.org/ns#"
   xmlns:rdf="http://www.w3.org/1999/02/22-rdf-syntax-ns#"
   xmlns:svg="http://www.w3.org/2000/svg"
   xmlns="http://www.w3.org/2000/svg"
   xmlns:sodipodi="http://sodipodi.sourceforge.net/DTD/sodipodi-0.dtd"
   xmlns:inkscape="http://www.inkscape.org/namespaces/inkscape"
   height="1000"
   width="1000"
   version="1"
   viewBox=""
   id="svg2"
   inkscape:version="0.48.5 r10040"
   sodipodi:docname="not-linkedin-rect.svg">
  <metadata
     id="metadata14">
    <rdf:RDF>
      <cc:Work
         rdf:about="">
        <dc:format>image/svg+xml</dc:format>
        <dc:type
           rdf:resource="http://purl.org/dc/dcmitype/StillImage" />
      </cc:Work>
    </rdf:RDF>
  </metadata>
  <defs
     id="defs12" />
  <sodipodi:namedview
     pagecolor="#ffffff"
     bordercolor="#666666"
     borderopacity="1"
     objecttolerance="10"
     gridtolerance="10"
     guidetolerance="10"
     inkscape:pageopacity="0"
     inkscape:pageshadow="2"
     inkscape:window-width="644"
     inkscape:window-height="480"
     id="namedview10"
     showgrid="false"
     inkscape:zoom="0.236"
     inkscape:cx="500"
     inkscape:cy="500"
     inkscape:window-x="0"
     inkscape:window-y="31"
     inkscape:window-maximized="0"
     inkscape:current-layer="svg2" />
  <path
     id="path4"
     d="M 70.71875,0 0,70.71875 56.09375,126.8125 C 41.228174,153.24469 32.71875,183.67653 32.71875,216 l 0,568.09375 c 0,32.3033 8.495083,62.70816 23.34375,89.125 L 0,929.28125 70.71875,1000 l 56.125,-56.125 c 26.37565,14.77691 56.71308,23.25 88.9375,23.25 l 568.0625,0 c 32.32317,0 62.75951,-8.51371 89.1875,-23.375 l 56.25,56.25 L 1000,929.28125 943.6875,872.96875 c 14.75744,-26.35848 23.1875,-56.67362 23.1875,-88.875 L 966.875,216 c 0,-32.22122 -8.44416,-62.56335 -23.21875,-88.9375 L 1000,70.71875 929.28125,0 873,56.28125 C 846.5806,41.428549 816.15184,32.9375 783.84375,32.9375 l -568.0625,0 c -32.20875,0 -62.53924,8.450721 -88.90625,23.21875 L 70.71875,0 z M 261.8125,187.09375 c 48.26916,0 78.01974,31.69048 78.9375,73.34375 0,3.06404 -0.22078,6.06989 -0.5625,9.03125 L 257.90625,187.1875 c 1.29317,-0.0469 2.5878,-0.0937 3.90625,-0.0937 z M 182.34375,253.0625 263,333.71875 c -0.70813,0.0137 -1.40898,0.0312 -2.125,0.0312 l -0.90625,0 c -47.35047,0 -77.9375,-32.57699 -77.9375,-73.3125 0,-2.49634 0.0892,-4.95491 0.3125,-7.375 z M 688.625,382.09375 c 87.35193,4.60062 151.5625,65.49378 151.5625,190.75 l 0,196.625 -141.0625,-141.0625 0,-39.25 c 0,-57.06542 -20.41361,-96 -71.46875,-96 -19.62925,0 -35.26091,6.68555 -47.25,16.53125 L 570.71875,500 688.625,382.09375 z m -226.15625,9.65625 75.0625,0 L 500,429.28125 462.46875,391.75 z m -272.125,0.0312 130.71875,0 10.34375,10.34375 0,195.75 -141.0625,141.0625 0,-347.15625 z m 219.96875,89.25 18.96875,18.96875 -18.9375,18.9375 c -3.7e-4,-13.23226 -0.0106,-25.94033 -0.0312,-37.90625 z m 89.6875,89.6875 50.59375,50.59375 0,194.9375 -141.0625,0 c 0,0 0.31955,-71.60255 0.5625,-155.625 L 500,570.71875 z m -168.59375,168.59375 0,76.9375 -76.9375,0 76.9375,-76.9375 z m 367.71875,30.53125 46.40625,46.40625 -46.40625,0 0,-46.40625 z" />
</svg>
