<?xml version="1.0" encoding="UTF-8" standalone="no"?>
<svg
   xmlns:dc="http://purl.org/dc/elements/1.1/"
   xmlns:cc="http://creativecommons.org/ns#"
   xmlns:rdf="http://www.w3.org/1999/02/22-rdf-syntax-ns#"
   xmlns:svg="http://www.w3.org/2000/svg"
   xmlns="http://www.w3.org/2000/svg"
   xmlns:sodipodi="http://sodipodi.sourceforge.net/DTD/sodipodi-0.dtd"
   xmlns:inkscape="http://www.inkscape.org/namespaces/inkscape"
   width="1000"
   height="1000"
   viewBox=""
   id="svg2"
   version="1.1"
   inkscape:version="0.48.5 r10040"
   sodipodi:docname="not-youtube.svg">
  <metadata
     id="metadata14">
    <rdf:RDF>
      <cc:Work
         rdf:about="">
        <dc:format>image/svg+xml</dc:format>
        <dc:type
           rdf:resource="http://purl.org/dc/dcmitype/StillImage" />
      </cc:Work>
    </rdf:RDF>
  </metadata>
  <defs
     id="defs12" />
  <sodipodi:namedview
     pagecolor="#ffffff"
     bordercolor="#666666"
     borderopacity="1"
     objecttolerance="10"
     gridtolerance="10"
     guidetolerance="10"
     inkscape:pageopacity="0"
     inkscape:pageshadow="2"
     inkscape:window-width="644"
     inkscape:window-height="480"
     id="namedview10"
     showgrid="false"
     inkscape:zoom="0.236"
     inkscape:cx="500"
     inkscape:cy="500"
     inkscape:window-x="0"
     inkscape:window-y="31"
     inkscape:window-maximized="0"
     inkscape:current-layer="svg2" />
  <path
     id="path4"
     style="fill:#000000"
     d="M 70.71875,0 0,70.71875 l 302.625,302.625 0,31.8125 31.8125,0 42.71875,42.71875 c -58.01605,0.85637 -115.2043,2.35993 -167.90625,4.5625 l 7.03125,0.0312 c -56.36308,0 -109.90625,45.22954 -109.90625,100.84375 l 0,0.59375 -0.0312,0.59375 c -3.73352,48.65893 -5.55759,99.54414 -5.40625,151.3125 -0.11851,40.49584 1.01442,80.45073 3.28125,119.25 L 0,929.28125 70.71875,1000 140.75,929.96875 c 20.3698,17.97861 47.60062,29.09375 75.53125,29.09375 l -7.03125,0 c 90.02555,3.7694 193.04579,5.57631 291.125,5.40625 98.0215,0.17006 201.03694,-1.63685 291.0625,-5.40625 l -7.03125,0 c 27.76682,0 54.82805,-10.98308 75.15625,-28.78125 L 929.28125,1000 1000,929.28125 896.4375,825.71875 c 2.28925,-39.02676 3.43294,-79.22238 3.3125,-120 0.15291,-51.69192 -1.69146,-102.53954 -5.40625,-151.21875 l -0.0625,-0.59375 0,-0.59375 c 0,-55.61421 -45.85567,-100.84375 -102.21875,-100.84375 l -8,0 -0.3125,-0.0312 c -52.01709,-2.17395 -105.85075,-3.66865 -160.9375,-4.53125 L 672.21875,398.5 c 8.68204,-5.53032 17.04153,-13.07884 25.125,-22.6875 l 0,29.34375 49.40625,0 0,-81.1875 L 1000,70.71875 929.28125,0 746.75,182.53125 l 0,-43.0625 -49.40625,0 0,92.46875 -42.15625,42.15625 0,-134.625 -49.4375,0 0,184.0625 -47.28125,47.28125 c 3.5666,-9.26859 5.375,-19.87665 5.375,-31.875 l 0,-137.21875 c 0,-20.24647 -6.51942,-36.7988 -19.59375,-49.65625 -13.03532,-12.85589 -29.78194,-19.3125 -50.21875,-19.3125 -22.45412,0 -40.3229,6.11033 -53.625,18.3125 -13.29118,12.20375 -19.9375,28.57902 -19.9375,49.15625 l 0,137.71875 c 0,4.36885 0.26425,8.5388 0.75,12.5625 L 358.25,287.53125 l 0,-31.8125 L 422.96875,45 l -56.5,0 -34.4375,143.96875 -3.46875,0 L 292.46875,45 236.4375,45 289.25,218.53125 70.71875,0 z M 491.625,178.8125 c 6.53716,0 11.82628,1.78185 15.84375,5.34375 4.00654,3.57125 6,8.25551 6,14.0625 l 0,144.6875 c 0,7.14407 -1.95272,12.73887 -5.875,16.8125 -3.94258,4.06271 -9.26932,6.09375 -15.96875,6.09375 -6.52624,0 -11.54742,-1.98096 -15.0625,-5.96875 -3.52446,-3.98783 -5.28125,-9.62337 -5.28125,-16.9375 l 0,-144.6875 c 0,-5.80699 1.88528,-10.49125 5.65625,-14.0625 3.76004,-3.56345 8.66209,-5.34375 14.6875,-5.34375 z M 522.59375,406.6875 500,429.28125 482.0625,411.34375 c 3.1362,0.31977 6.37652,0.5 9.71875,0.5 11.56106,0 21.81197,-1.72327 30.8125,-5.15625 z M 156.375,520.53125 l 170.71875,0 0,52.28125 -57.5625,0 0,86.9375 -55.625,55.625 0,-142.5625 -57.53125,0 0,-52.28125 z m 359.21875,65.78125 49.84375,49.84375 0,0.3125 c 0.0472,-0.0576 0.10896,-0.0988 0.15625,-0.15625 l 18.125,18.125 -8.09375,2.03125 -10.15625,8.09375 0,165.53125 11.6875,9.34375 11.9375,2.875 c 6.02697,0 10.50108,-1.86025 13.34375,-5.59375 2.84108,-3.71166 4.28125,-9.84071 4.28125,-18.3125 l -0.0312,0 0,-137.15625 c 0,-1.37498 -0.0417,-2.69585 -0.125,-3.96875 l 50.96875,50.96875 0,97.375 c 0,18.87352 -3.86149,33.35084 -11.59375,43.375 -7.73069,10.04445 -18.93424,15.03125 -33.5625,15.03125 -9.64503,0 -18.28312,-1.92921 -25.84375,-5.8125 -7.58093,-3.86613 -14.59405,-9.87764 -21.09375,-17.96875 l 0,20.40625 -49.84375,0 0,-294.34375 z m 254.1875,21.96875 c 22.60702,0 39.96647,6.73407 52.09375,20.1875 12.1273,13.43472 18.1875,32.74841 18.1875,57.96875 l 0,67.625 -15.28125,0 -41.25,-41.25 5.71875,0 0,-26.875 c 0,-11.14124 -1.72697,-19.09309 -5.15625,-23.90625 -3.41054,-4.81317 -8.90178,-7.25 -16.40625,-7.25 -7.88205,0 -13.50822,2.43683 -16.9375,7.25 -2.24177,3.14499 -3.72604,7.65833 -4.5,13.5 l -37.3125,-37.3125 c 2.04016,-2.84867 4.29967,-5.57708 6.78125,-8.15625 13.96519,-14.51593 31.95005,-21.78125 54.0625,-21.78125 z M 455.71875,615 l 11.6875,0 0,265.65625 -49.40625,0 0,-29.3125 c -9.09586,10.80114 -18.55371,19.0412 -28.40625,24.6875 -9.84473,5.62913 -19.42157,8.46875 -28.6875,8.46875 -11.4174,0 -20.02268,-3.943 -25.8125,-11.84375 -5.78826,-7.92104 -8.6875,-19.80164 -8.6875,-35.625 l 0,-92.71875 49.375,-49.375 0,123.71875 c 0,6.29065 1.05933,10.83232 3.125,13.65625 2.06569,2.82393 5.42877,4.25 10.0625,4.25 3.63835,0 8.19731,-1.86024 13.75,-5.59375 L 418,816.65625 418,652.71875 455.71875,615 z m 239.0625,150.5 51.40625,51.40625 c 0.72537,7.29854 2.16072,12.77873 4.3125,16.34375 3.26079,5.40136 8.82418,8.09375 16.6875,8.09375 1.1535,0 2.25707,-0.0344 3.3125,-0.125 l 37.15625,37.15625 c -11.05308,6.33164 -24.92201,9.5 -41.59375,9.5 -22.09372,0 -39.50483,-7.31543 -52.21875,-21.90625 -12.69676,-14.62825 -19.0625,-34.73177 -19.0625,-60.3125 l 0,-40.15625 z m -425.25,35.6875 0,79.46875 -55.625,0 0,-23.84375 55.625,-55.625 z" />
</svg>
