<?xml version="1.0" encoding="UTF-8" standalone="no"?>
<svg
   xmlns:dc="http://purl.org/dc/elements/1.1/"
   xmlns:cc="http://creativecommons.org/ns#"
   xmlns:rdf="http://www.w3.org/1999/02/22-rdf-syntax-ns#"
   xmlns:svg="http://www.w3.org/2000/svg"
   xmlns="http://www.w3.org/2000/svg"
   xmlns:sodipodi="http://sodipodi.sourceforge.net/DTD/sodipodi-0.dtd"
   xmlns:inkscape="http://www.inkscape.org/namespaces/inkscape"
   height="1000"
   width="1000"
   viewBox=""
   id="svg2"
   version="1.1"
   inkscape:version="0.48.5 r10040"
   sodipodi:docname="not-vimeo.svg">
  <metadata
     id="metadata14">
    <rdf:RDF>
      <cc:Work
         rdf:about="">
        <dc:format>image/svg+xml</dc:format>
        <dc:type
           rdf:resource="http://purl.org/dc/dcmitype/StillImage" />
      </cc:Work>
    </rdf:RDF>
  </metadata>
  <defs
     id="defs12" />
  <sodipodi:namedview
     pagecolor="#ffffff"
     bordercolor="#666666"
     borderopacity="1"
     objecttolerance="10"
     gridtolerance="10"
     guidetolerance="10"
     inkscape:pageopacity="0"
     inkscape:pageshadow="2"
     inkscape:window-width="644"
     inkscape:window-height="480"
     id="namedview10"
     showgrid="false"
     inkscape:zoom="0.236"
     inkscape:cx="500"
     inkscape:cy="500"
     inkscape:window-x="0"
     inkscape:window-y="31"
     inkscape:window-maximized="0"
     inkscape:current-layer="svg2" />
  <path
     id="path4"
     d="M 70.71875,0 0,70.71875 136.1875,206.90625 c -4.50073,4.02523 -9.08617,8.20888 -13.78125,12.5625 -29.902193,27.72749 -59.785307,59.2548 -89.6875,94.59375 l 38.3125,49.75 c 14.679258,-11.4172 28.276697,-20.24772 40.78125,-26.5 12.50455,-6.25228 22.44162,-10.07831 29.78125,-11.4375 7.33963,-1.35919 13.8539,-1.35919 19.5625,0 5.7086,1.35919 9.36897,2.60015 11,3.6875 1.63103,1.08735 2.73757,2.16265 3.28125,3.25 9.2425,10.87352 35.46524,87.12234 78.6875,228.75 9.82885,32.20648 18.68144,60.8615 26.78125,86.8125 L 0,929.28125 70.71875,1000 315.28125,755.4375 c 8.50797,25.19388 14.63584,41.7347 18.34375,49.5625 8.15514,16.31029 18.49545,31.82074 31,46.5 12.50455,14.67926 27.71493,27.7078 45.65625,39.125 17.94132,11.4172 36.84332,17.125 56.6875,17.125 19.84418,0 41.19685,-6.51427 64.03125,-19.5625 20.6597,-13.59191 45.23825,-32.22508 73.78125,-55.875 23.63716,-19.58508 50.7464,-44.76073 81.28125,-75.53125 L 929.28125,1000 1000,929.28125 754.34375,683.625 c 20.56773,-23.67414 40.30389,-48.05897 59.21875,-73.125 33.43609,-44.30961 64.15692,-95.27657 92.15625,-152.90625 27.99933,-57.62968 46.90133,-114.17002 56.6875,-169.625 3.26206,-17.39764 4.875,-33.98339 4.875,-49.75 0,-27.18381 -4.87008,-51.0903 -14.65625,-71.75 C 947.56613,155.2572 941.38762,145.2921 934.09375,136.625 L 1000,70.71875 929.28125,0 836.4375,92.84375 C 830.85442,92.445602 825.27058,92.25 819.6875,92.25 c -48.38718,0 -95.69377,16.31693 -141.90625,48.9375 -60.89174,42.95042 -97.32037,99.75959 -109.28125,170.4375 26.09646,-14.13558 48.65883,-21.21875 67.6875,-21.21875 0.88347,0 1.75852,0.0285 2.625,0.0625 L 500,429.28125 l -34.5,-34.5 c -1.9243,-9.40164 -3.88602,-19.83894 -5.875,-31.375 -4.07757,-23.64992 -7.73794,-45.27141 -11,-64.84375 -3.26206,-19.57234 -7.35691,-40.62494 -12.25,-63.1875 -4.89309,-22.56256 -10.7353,-42.13662 -17.53125,-58.71875 -6.79595,-16.58213 -14.65434,-31.55493 -23.625,-44.875 -8.97066,-13.32007 -20.52067,-22.68824 -34.65625,-28.125 -8.69882,-3.26206 -18.23265,-4.875 -28.5625,-4.875 -6.52411,0 -13.03839,0.537648 -19.5625,1.625 l -13.875,3.25 c -8.69882,2.71838 -21.72736,8.56059 -39.125,17.53125 -12.99429,6.70018 -27.30271,14.92313 -42.875,24.65625 L 70.71875,0 z m 628.0625,371.9375 c -1.18077,21.45448 -8.16482,44.02303 -21,67.71875 -22.3719,42.11181 -43.23031,77.03511 -62.59375,104.8125 L 570.71875,500 698.78125,371.9375 z" />
</svg>
