<?xml version="1.0" encoding="UTF-8" standalone="no"?>
<svg
   xmlns:dc="http://purl.org/dc/elements/1.1/"
   xmlns:cc="http://creativecommons.org/ns#"
   xmlns:rdf="http://www.w3.org/1999/02/22-rdf-syntax-ns#"
   xmlns:svg="http://www.w3.org/2000/svg"
   xmlns="http://www.w3.org/2000/svg"
   xmlns:sodipodi="http://sodipodi.sourceforge.net/DTD/sodipodi-0.dtd"
   xmlns:inkscape="http://www.inkscape.org/namespaces/inkscape"
   width="1000"
   height="1000"
   viewBox=""
   id="svg2"
   version="1.1"
   inkscape:version="0.48.5 r10040"
   sodipodi:docname="not-deviantart.svg">
  <metadata
     id="metadata14">
    <rdf:RDF>
      <cc:Work
         rdf:about="">
        <dc:format>image/svg+xml</dc:format>
        <dc:type
           rdf:resource="http://purl.org/dc/dcmitype/StillImage" />
      </cc:Work>
    </rdf:RDF>
  </metadata>
  <defs
     id="defs12" />
  <sodipodi:namedview
     pagecolor="#ffffff"
     bordercolor="#666666"
     borderopacity="1"
     objecttolerance="10"
     gridtolerance="10"
     guidetolerance="10"
     inkscape:pageopacity="0"
     inkscape:pageshadow="2"
     inkscape:window-width="644"
     inkscape:window-height="480"
     id="namedview10"
     showgrid="false"
     inkscape:zoom="0.236"
     inkscape:cx="500"
     inkscape:cy="500"
     inkscape:window-x="0"
     inkscape:window-y="31"
     inkscape:window-maximized="0"
     inkscape:current-layer="svg2" />
  <path
     id="path4"
     d="M 70.71875,0 0,70.71875 336.875,407.59375 C 93.275149,452.25587 39.95421,594.88231 36.25,698 L 231.40625,697.875 0,929.28125 70.71875,1000 372.9375,697.78125 l 108.8125,-0.0625 0,-108.75 18.25,-18.25 30.125,30.125 -0.75,96.3125 97.0625,0 L 929.28125,1000 1000,929.28125 767.84375,697.125 l 203.25,-0.0312 C 974.37202,530.33822 860.65914,434.01223 669.8125,400.90625 L 1000,70.71875 929.28125,0 540.90625,388.375 c -19.21417,-0.61506 -38.92906,-0.78006 -59.15625,-0.46875 l 0,-78.84375 -101.96875,0 L 70.71875,0 z m 560.8125,439.1875 c 88.41169,16.62987 167.74571,63.33783 197.21875,187.53125 l -132.375,-1.0625 -65.5625,-65.5625 0,-70.78125 c -14.41597,-4.20881 -28.00037,-6.70441 -41.34375,-8.0625 l 42.0625,-42.0625 z m -258.4375,4.625 4.25,4.25 1.5,102.375 -77.875,77.875 -115.3125,0 c 21.46862,-91.32692 64.50884,-165.08524 187.4375,-184.5 z" />
</svg>
