<?xml version="1.0" encoding="UTF-8" standalone="no"?>
<svg
   width="512px"
   height="512px">
<path
       d="m 402,142 0,-78 -34,0 0,78 -80,0 0,34 80,0 0,81 34,0 0,-81 78,0 0,-34 z m -159.9,133.6 -18.2,-13.7 -0.1,-0.1 c -5.8,-4.6 -10,-8.3 -10,-14.7 0,-7 5,-11.8 10.9,-17.4 l 0.5,-0.4 c 20,-15.2 44.7,-34.3 44.7,-74.6 C 269.9,127.8 258,110 246.6,97 h 13 L 320,64 H 186.5 c -25.3,0 -62.7,3.2 -94.6,28.6 l -0.1,0.3 C 70,110.9 57,137.4 57,163.5 c 0,21.2 8.7,42.2 23.9,57.4 21.4,21.6 48.3,26.1 67.1,26.1 1.5,0 3,0 4.5,-0.1 -0.8,3 -1.2,6.3 -1.2,10.3 0,10.9 3.6,19.3 8.1,26.2 -24,1.9 -58.1,6.5 -84.9,22.3 -39.4,22.7 -42.5,56 -42.5,65.6 0,38.2 35.7,76.8 115.5,76.8 91.6,0 139.5,-49.8 139.5,-99 0,-37.1 -22.8,-55.6 -44.9,-73.5 z M 116.7,139.9 c 0,-13.4 3,-23.5 9.3,-30.9 6.5,-7.9 18.2,-13.1 29,-13.1 19.9,0 32.9,15 40.4,27.6 9.2,15.5 14.9,36.1 14.9,53.6 0,4.9 0,20 -10.2,29.8 -7,6.7 -18.7,11.4 -28.6,11.4 -20.5,0 -33.5,-14.7 -40.7,-27 -10.4,-17.8 -14.1,-38.2 -14.1,-51.4 z M 237.8,368 c 0,27.4 -25.2,44.5 -65.8,44.5 -48.1,0 -80.3,-20.6 -80.3,-51.3 0,-26.1 21.5,-36.8 37.8,-42.5 18.9,-6.1 44.3,-7.3 50.1,-7.3 3.9,0 6.1,0 8.7,0.2 36.6,25.2 49.5,36.1 49.5,56.4 z" /></svg>
