<?xml version="1.0" encoding="UTF-8" standalone="no"?>
<svg
   width="1000"
   height="1000">
  <path
     d="m 509.8159,27.379272 c -52.53405,-0.1311 -100.4473,10.85755 -148.22945,21.16695 L 717.7177,372.73373 712.8195,87.852472 c -77.9684,-45.88405 -143.4652,-60.325 -203.0036,-60.4732 z M 287.93105,80.460522 C 39.574446,254.01888 58.378746,427.59148 64.414096,601.14983 L 457.3873,240.12038 287.93105,80.460522 z m 491.17945,51.597358 2.4643,528.0518 135.0786,-4.9286 C 978.8727,407.47428 898.896,256.26183 779.11145,132.05788 z M 241.2623,522.56773 81.602446,677.29898 C 144.1096,819.59948 193.99125,860.90358 243.6962,900.78648 l -2.43485,-378.21875 z m 83.48125,194.00805 -2.43485,230.87945 c 342.90155,84.88437 472.54235,-54.71905 569.79195,-228.4161 l -567.35805,-2.4643 z"
     style="fill:#000000" />
</svg>
