<?xml version="1.0" encoding="UTF-8" standalone="no"?>
<svg
   height="1000"
   width="1000"><path
     d="m 113,359 q 0,-63 26.5,-125 26.5,-62 76,-115 Q 265,66 345.5,33 426,0 524,0 683,0 785,98 887,196 887,329 887,500 800.5,611.5 714,723 577,723 532,723 492.5,702 453,681 437,651 l -40,158 q -5,19 -13,38.5 -8,19.5 -17.5,37.5 -9.5,18 -19,34 -9.5,16 -19,30 -9.5,14 -16.5,23.5 -7,9.5 -13,16.5 l -6,8 q -3,4 -8,3 -5,-1 -6,-6 0,-1 -1.5,-14 -1.5,-13 -3,-27.5 -1.5,-14.5 -3,-37.5 -1.5,-23 -1,-44.5 0.5,-21.5 3,-47.5 2.5,-26 7.5,-48 11,-47 74,-313 -8,-16 -13,-38.5 -5,-22.5 -5,-36.5 l -1,-15 Q 336,308 368.5,265.5 401,223 447,223 q 37,0 57.5,24.5 20.5,24.5 20.5,61.5 0,23 -8.5,56.5 -8.5,33.5 -22.5,77 -14,43.5 -20,70.5 -10,45 17.5,78 27.5,33 73.5,33 79,0 130.5,-89.5 Q 747,445 747,318 747,221 684,159.5 621,98 508,98 382,98 303.5,179 225,260 225,373 q 0,67 38,113 13,15 8,32 -2,5 -6,23 -4,18 -6,23 -2,11 -10,14.5 Q 241,582 231,578 172,554 142.5,495.5 113,437 113,359 z"
     style="fill:#000000" />
</svg>
