<?xml version="1.0" encoding="UTF-8" standalone="no"?>
<svg
   width="1000"
   height="1000">
  <path
     d="m 537.603,0 v 252.756 h 237.3 v 156.983 h -237.3 v 256.442 c 0,57.96 3.061,95.177 9.218,111.653 6.122,16.446 17.571,29.584 34.251,39.414 22.126,13.261 47.413,19.907 75.914,19.907 50.608,0 100.978,-16.476 151.073,-49.398 V 945.47 c -42.746,20.124 -81.441,34.283 -116.056,42.382 -34.653,8.099 -72.119,12.149 -112.384,12.149 -45.694,0 -86.108,-5.782 -121.238,-17.312 -35.128,-11.561 -65.082,-28.037 -89.897,-49.366 -24.817,-21.392 -42.016,-44.111 -51.587,-68.192 -9.583,-24.051 -14.374,-58.949 -14.374,-104.639 V 409.739 H 192 V 268.224 c 39.276,-12.766 72.958,-31.048 100.94,-54.899 28.025,-23.815 50.493,-52.44 67.432,-85.855 C 377.335,94.085 388.997,51.58 395.37,0.001 h 142.232"
     style="fill:#000000"/></svg>
