<?xml version="1.0" encoding="UTF-8" standalone="no"?>
<svg
   height="1000"
   width="1000">
  <path
     d="m 60,633 q 0,147 101,257 101,110 260,110 158,0 259,-110 101,-108 101,-257 0,-78 -27,-146 -40,25 -85,34 22,51 22,114 0,76 -36,142 -37,66 -99,101 -62,36 -135,36 -75,0 -136,-36 -63,-37 -98,-101 -37,-65 -37,-142 0,-117 80,-202 80,-83 191,-83 51,0 98,19 4,-39 27,-86 Q 489,262 421,262 261,262 155,380 60,487 60,633 z m 280,253 56,4 Q 470,843 520.5,781 571,719 593,657 q 22,-62 31,-126 6,-41 6,-80 0,-21 -2,-40 -5,-55 -12.5,-98.5 Q 608,269 600,244 l -9,-25 Q 569,151 547.5,100 526,49 516,33 L 505,16 q 39,20 63,48 23,29 28,53 4,20 4,39 l 0,7 q -1,22 -6,35 l -5,13 q 4,58 5,112 0,52 -5,102 -9,100 -30.5,167 Q 537,659 509,713.5 481,768 451.5,799 422,830 397,850.5 372,871 356,879 z M 615,249 q 4,-40 23,-64 l 18,-25 q 12,-14 39,-26.5 27,-12.5 48,-18.5 l 21,-6 Q 800,101 830.5,74 861,47 874,23 L 887,0 q 41,57 49,129 4,32 3,57 0,34 -6,59 l -11,45 q -12,33 -33.5,60 -21.5,27 -36.5,37 l -15,11 q -34,20 -67,20 L 661,365 q 58,-32 101,-65 43,-33 63.5,-57.5 Q 846,218 858.5,198 871,178 873,167 l 2,-10 q -18,40 -48.5,73 -30.5,33 -62,52 Q 733,301 704,314.5 675,328 657,333 l -18,5 q -25,-44 -25,-79 0,-5 1,-10 z"
     style="fill:#000000" />
</svg>
