<?xml version="1.0" encoding="UTF-8" standalone="no"?>
<svg
   width="1000"
   height="1000">
   <path
     d="m 803.62455,449.12259 0.32384,0.0107 h 8.55733 c 60.3085,0 109.37531,48.41743 109.37531,107.92463 v 0.62769 l 0.0802,0.62936 c 3.97482,52.08676 5.92134,106.50565 5.75773,161.816 0.16361,55.39381 -1.78291,109.81105 -5.75773,161.8978 l -0.0802,0.62768 v 0.62936 c 0,59.50723 -57.26853,107.92464 -117.56703,107.92464 h 7.52228 c -96.32735,4.03326 -206.56242,5.95973 -311.44542,5.77777 -104.94475,0.18196 -215.18151,-1.74451 -311.50885,-5.77777 h 7.53229 c -60.3085,0 -117.585408,-48.41741 -117.585408,-107.92464 v -0.62936 l -0.05009,-0.62768 C 74.793957,829.98208 72.847443,775.54316 73.009374,720.21111 72.847443,664.81897 74.78394,610.38004 78.778805,558.31498 l 0.05009,-0.62936 v -0.62769 c 0,-59.5072 57.276905,-107.92463 117.585405,-107.92463 l -7.53229,-0.0107 c 96.30564,-4.0249 206.55241,-5.9614 311.44541,-5.76776 104.9648,-0.19364 206.99147,1.74286 303.29713,5.76776 z M 762.8112,698.96405 c 0,-11.92281 1.82464,-20.43838 5.49565,-25.58846 3.66933,-5.15009 9.69082,-7.74433 18.12461,-7.74433 8.02978,0 13.90939,2.59424 17.55867,7.74433 3.66933,5.15008 5.51568,13.66733 5.51568,25.58846 v 28.75029 H 762.8112 v -28.75029 z m 101.07177,72.89073 v -72.3632 c 0,-26.98576 -6.48725,-47.66787 -19.46346,-62.04302 -12.97619,-14.39517 -31.54821,-21.5719 -55.73772,-21.5719 -23.66032,0 -42.92178,7.76434 -57.86453,23.29638 -14.94273,15.53037 -22.40492,35.62319 -22.40492,60.31854 V 827.0633 c 0,27.37138 6.81279,48.86315 20.39832,64.51538 13.60389,15.61218 32.23766,23.43663 55.87794,23.43663 26.318,0 46.08528,-7.3804 59.32524,-22.11947 13.26,-14.74074 19.86913,-36.67825 19.86913,-65.83421 v -21.32816 h -54.37716 v 19.74891 c 0,16.70729 -1.74452,27.53331 -5.23189,32.41963 -3.48734,4.88631 -9.61069,7.33865 -18.39002,7.33865 -8.41375,0 -14.37348,-2.89806 -17.86252,-8.67751 -3.48736,-5.77777 -5.21018,-16.13802 -5.21018,-31.08077 v -53.6276 H 863.88297 z M 614.1734,840.68722 c 0,9.06481 -1.54085,15.61385 -4.58081,19.58533 -3.04166,3.99485 -7.82613,6.00146 -14.27499,6.00146 l -12.77254,-3.08169 -12.50877,-9.9763 V 676.07333 l 10.88613,-8.65749 11.17157,-2.79788 c 7.15669,0 12.65067,2.49239 16.4018,7.46049 3.77117,4.96812 5.67594,12.24669 5.67594,21.85739 v 146.75138 z m 2.83963,-221.22303 c -8.19172,0 -16.28159,2.25201 -24.29134,6.77272 -8.00809,4.52073 -15.57044,11.10982 -22.68705,19.789 V 521.96324 h -53.36552 v 385.34947 h 53.36552 v -21.8557 c 6.95468,8.65749 14.45527,15.08465 22.56686,19.22141 8.08987,4.15512 17.31495,6.24353 27.63513,6.24353 15.65224,0 27.63515,-5.35207 35.90699,-16.09963 8.27352,-10.72585 12.41028,-26.19445 12.41028,-46.38912 V 690.73226 c 0,-23.23461 -4.41889,-40.91517 -13.21993,-53.06 -8.79937,-12.14484 -21.57525,-18.20807 -38.32094,-18.20807 z m -204.75947,219.35832 -16.33168,15.30834 c -5.94138,3.99486 -10.84605,5.98143 -14.73908,5.98143 -4.95809,0 -8.54561,-1.50078 -10.7559,-4.52238 -2.21027,-3.0216 -3.32543,-7.88788 -3.32543,-14.61888 V 623.05339 h -52.84633 v 237.58476 c 0,16.93099 3.10174,29.62172 9.29518,38.09723 6.19511,8.4538 15.40851,12.6924 27.62513,12.6924 9.91454,0 20.14292,-3.03997 30.67678,-9.06314 10.54222,-6.04154 20.67043,-14.88264 30.403,-26.43986 v 31.38627 h 52.85801 V 623.05339 H 412.25356 V 838.82251 z M 314.983,521.96158 H 132.3146 v 55.93972 h 61.57392 v 329.40975 h 59.50721 V 577.9013 H 314.983 V 521.96158 z M 217.98622,13.155442 h 59.94457 L 316.55556,167.18705 H 320.285 L 357.1135,13.155442 h 60.4721 L 348.31579,238.60539 V 398.50658 H 288.79855 V 245.80215 L 217.98622,13.155442 z M 469.2767,331.91113 c 0,7.82612 1.8764,13.85931 5.64757,18.12629 3.76114,4.26694 9.13491,6.38541 16.11799,6.38541 7.16839,0 12.85433,-2.17021 17.07289,-6.51731 4.19684,-4.35878 6.3053,-10.35024 6.3053,-17.99439 V 177.09992 c 0,-6.21348 -2.15018,-11.23336 -6.43718,-15.0546 -4.29869,-3.81123 -9.94459,-5.72769 -16.93935,-5.72769 -6.44719,0 -11.68908,1.9148 -15.71232,5.72769 -4.03494,3.82124 -6.05321,8.84112 -6.05321,15.0546 V 331.91113 z M 414.88954,179.22839 c 0,-22.01764 7.11662,-39.53625 21.33818,-52.59426 14.23325,-13.05632 33.35282,-19.57529 57.37873,-19.57529 21.86739,0 39.79166,6.88291 53.73945,20.63871 13.98953,13.75747 20.96592,31.46807 20.96592,53.13179 v 146.8215 c 0,24.32974 -6.85287,43.40924 -20.55859,57.25851 -13.68568,13.84764 -32.54149,20.77062 -56.55905,20.77062 -23.11276,0 -41.62467,-7.14668 -55.49232,-21.43001 -13.87766,-14.29335 -20.81232,-33.51475 -20.81232,-57.6642 V 179.22839 z m 349.13699,-64.99116 v 284.26935 h -52.85636 v -31.38794 c -9.73256,11.5689 -19.86912,20.37661 -30.413,26.41981 -10.54223,6.04155 -20.76226,9.07317 -30.65675,9.07317 -12.22496,0 -21.45171,-4.22691 -27.63514,-12.70241 -6.20515,-8.4538 -9.30521,-21.14622 -9.30521,-38.0772 V 114.23723 h 52.87805 v 217.90762 c 0,6.74102 1.09344,11.61731 3.30374,14.62888 2.20859,3.01158 5.79946,4.53242 10.76592,4.53242 3.89301,0 8.79937,-1.9966 14.71903,-5.99145 l 16.3417,-15.29834 V 114.23723 h 52.85802 z"
     style="fill:#000000" />
</svg>
